<svg xmlns="http://www.w3.org/2000/svg" xmlns:xlink="http://www.w3.org/1999/xlink" viewBox="0,0,256,256" width="64px" height="64px"><g fill="none" fill-rule="nonzero" stroke="none" stroke-width="none" stroke-linecap="none" stroke-linejoin="none" stroke-miterlimit="10" stroke-dasharray="" stroke-dashoffset="0" font-family="none" font-weight="none" font-size="none" text-anchor="none" style="mix-blend-mode: normal"><g transform="scale(4,4)"><path d="M51,17h-8v-9c0,-1.105 0.895,-2 2,-2h4c1.105,0 2,0.895 2,2z" fill="#7df4d9" stroke="none" stroke-width="1" stroke-linecap="butt" stroke-linejoin="miter"></path><ellipse cx="32" cy="61" rx="20.125" ry="3" fill="#000000" stroke="none" stroke-width="1" stroke-linecap="butt" stroke-linejoin="miter" opacity="0.3"></ellipse><path d="M52.478,16.561l-16.827,-9.6c-2.133,-1.217 -4.747,-1.227 -6.889,-0.027l-17.204,9.635c-1.58,0.883 -2.558,2.552 -2.558,4.362v28.069c0,2.761 2.239,5 5,5h36c2.761,0 5,-2.239 5,-5v-28.096c0,-1.796 -0.963,-3.453 -2.522,-4.343z" fill="#7df4d9" stroke="none" stroke-width="1" stroke-linecap="butt" stroke-linejoin="miter"></path><path d="M55.498,23c-0.409,0 -0.824,-0.101 -1.208,-0.312l-22.29,-12.331l-22.29,12.331c-1.206,0.667 -2.729,0.231 -3.397,-0.978c-0.668,-1.208 -0.23,-2.729 0.978,-3.397l23.5,-13c0.752,-0.416 1.668,-0.416 2.42,0l23.5,13c1.208,0.668 1.646,2.189 0.978,3.397c-0.458,0.825 -1.311,1.29 -2.191,1.29z" fill="#b5fd3c" stroke="none" stroke-width="1" stroke-linecap="butt" stroke-linejoin="miter"></path><path d="M32.453,5.057c-0.562,-0.104 -1.15,-0.029 -1.663,0.255l-23.5,13c-0.197,0.109 -0.365,0.247 -0.519,0.396c0.923,1.597 2.597,2.501 4.328,2.501c0.818,0 1.648,-0.201 2.415,-0.626l16.754,-9.268c2.242,-1.239 3.133,-3.943 2.185,-6.258z" fill="#ffffff" stroke="none" stroke-width="1" stroke-linecap="butt" stroke-linejoin="miter" opacity="0.3"></path><path d="M25.472,12.225l-7.955,4.415" fill="none" stroke="#ffffff" stroke-width="3" stroke-linecap="round" stroke-linejoin="round"></path><path d="M48,54h-14v-21c0,-1.105 0.895,-2 2,-2h10c1.105,0 2,0.895 2,2z" fill="#c2348c" stroke="none" stroke-width="1" stroke-linecap="butt" stroke-linejoin="miter"></path><path d="M35.003,54h14.997c2.761,0 5,-2.239 5,-5v-15.997c-2.761,0 -5,2.236 -5,4.997v9c0,1.105 -0.895,2 -2,2h-7.785c-2.612,0 -4.944,1.91 -5.191,4.51c-0.016,0.165 -0.021,0.328 -0.021,0.49z" fill="#000000" stroke="none" stroke-width="1" stroke-linecap="butt" stroke-linejoin="miter" opacity="0.15"></path><path d="M26,41h-8c-1.105,0 -2,-0.895 -2,-2v-6c0,-1.105 0.895,-2 2,-2h8c1.105,0 2,0.895 2,2v6c0,1.105 -0.895,2 -2,2z" fill="#c2348c" stroke="none" stroke-width="1" stroke-linecap="butt" stroke-linejoin="miter"></path></g></g></svg>