<svg xmlns="http://www.w3.org/2000/svg" xmlns:xlink="http://www.w3.org/1999/xlink" viewBox="0,0,256,256" width="50px" height="50px"><g fill="#07386a" fill-rule="nonzero" stroke="none" stroke-width="1" stroke-linecap="butt" stroke-linejoin="miter" stroke-miterlimit="10" stroke-dasharray="" stroke-dashoffset="0" font-family="none" font-weight="none" font-size="none" text-anchor="none" style="mix-blend-mode: normal"><g transform="scale(5.12,5.12)"><path d="M31.5,9c-0.276,0 -0.5,0.224 -0.5,0.5c0,0.276 0.224,0.5 0.5,0.5h7.79297l-14.14648,14.14648c-0.195,0.195 -0.195,0.51203 0,0.70703c0.098,0.097 0.22552,0.14648 0.35352,0.14648c0.128,0 0.25552,-0.04948 0.35352,-0.14648l14.14648,-14.14648v7.79297c0,0.276 0.224,0.5 0.5,0.5c0.276,0 0.5,-0.224 0.5,-0.5v-9c0,-0.276 -0.224,-0.5 -0.5,-0.5zM14.5,10c-2.481,0 -4.5,2.019 -4.5,4.5v21c0,2.481 2.019,4.5 4.5,4.5h21c2.481,0 4.5,-2.019 4.5,-4.5v-12c0,-0.276 -0.224,-0.5 -0.5,-0.5c-0.276,0 -0.5,0.224 -0.5,0.5v12c0,1.93 -1.57,3.5 -3.5,3.5h-21c-1.93,0 -3.5,-1.57 -3.5,-3.5v-21c0,-1.93 1.57,-3.5 3.5,-3.5h12c0.276,0 0.5,-0.224 0.5,-0.5c0,-0.276 -0.224,-0.5 -0.5,-0.5z"></path></g></g></svg>